<?xml version="1.0" encoding="UTF-8" standalone="no"?>
<!-- Created with Inkscape (http://www.inkscape.org/) -->

<svg
   width="240"
   height="50"
   viewBox="0 0 63.5 13.229167"
   version="1.1"
   id="svg72641"
   sodipodi:docname="agama_logo.svg"
   inkscape:version="1.1.2 (0a00cf5339, 2022-02-04)"
   xmlns:inkscape="http://www.inkscape.org/namespaces/inkscape"
   xmlns:sodipodi="http://sodipodi.sourceforge.net/DTD/sodipodi-0.dtd"
   xmlns="http://www.w3.org/2000/svg"
   xmlns:svg="http://www.w3.org/2000/svg">
  <sodipodi:namedview
     id="namedview17"
     pagecolor="#ffffff"
     bordercolor="#666666"
     borderopacity="1.0"
     inkscape:pageshadow="2"
     inkscape:pageopacity="0.0"
     inkscape:pagecheckerboard="0"
     inkscape:document-units="mm"
     showgrid="false"
     units="px"
     width="240px"
     inkscape:zoom="5.563886"
     inkscape:cx="89.955114"
     inkscape:cy="32.890681"
     inkscape:window-width="1920"
     inkscape:window-height="941"
     inkscape:window-x="0"
     inkscape:window-y="27"
     inkscape:window-maximized="1"
     inkscape:current-layer="svg72641" />
  <defs
     id="defs72638" />
  <g
     id="layer1"
     transform="matrix(0.74636352,0,0,0.74636352,-29.555049,-51.094187)"
     style="stroke-width:1.33983">
    <path
       d="m 55.944763,77.3792 c 0.368942,-1.2913 0.737884,-2.69998 1.056516,-4.05836 h 0.08385 c 0.352172,1.34161 0.687574,2.76706 1.073287,4.05836 l 0.368942,1.35838 H 55.57582 Z m -4.293146,6.47326 h 2.515515 l 0.872045,-3.18632 h 4.024824 l 0.872045,3.18632 h 2.599366 L 58.544128,71.42582 h -2.917997 z m 1.045404,-13.78502 h 8.742671 v -1.60993 h -8.742668 z"
       style="font-weight:bold;font-size:16.7701px;line-height:125%;font-family:'Noto Sans CJK TC';-inkscape-font-specification:'Noto Sans CJK TC Bold';letter-spacing:1.32292px;word-spacing:0px;baseline-shift:baseline;fill:#14c8f6;stroke-width:0.36437px;marker:none"
       id="path72293" />
    <path
       d="m 69.919774,84.08724 c 1.727321,0 3.186319,-0.6708 4.024824,-1.49254 v -5.60121 h -4.410536 v 2.02918 h 2.196883 v 2.44844 c -0.352172,0.30186 -0.955896,0.46956 -1.542849,0.46956 -2.448435,0 -3.689422,-1.6267 -3.689422,-4.32669 0,-2.66644 1.442229,-4.27637 3.504951,-4.27637 1.123596,0 1.827941,0.45279 2.448434,1.03974 l 1.308068,-1.57639 c -0.804965,-0.82173 -2.045952,-1.59315 -3.840353,-1.59315 -3.303709,0 -5.953385,2.39812 -5.953385,6.49002 0,4.14222 2.582595,6.38941 5.953385,6.38941 z"
       style="font-weight:bold;font-size:16.7701px;line-height:125%;font-family:'Noto Sans CJK TC';-inkscape-font-specification:'Noto Sans CJK TC Bold';letter-spacing:1.32292px;word-spacing:0px;baseline-shift:baseline;fill:#14c8f6;stroke-width:0.36437px;marker:none"
       id="path72290" />
    <path
       d="m 79.970581,77.3792 c 0.368942,-1.2913 0.737884,-2.69998 1.056516,-4.05836 h 0.08385 c 0.352172,1.34161 0.687574,2.76706 1.073286,4.05836 l 0.368942,1.35838 h -2.951537 z m -4.293146,6.47326 h 2.515515 l 0.872045,-3.18632 h 4.024824 l 0.872046,3.18632 H 86.56123 L 82.569946,71.42582 h -2.917997 z"
       style="font-weight:bold;font-size:16.7701px;line-height:125%;font-family:'Noto Sans CJK TC';-inkscape-font-specification:'Noto Sans CJK TC Bold';letter-spacing:1.32292px;word-spacing:0px;baseline-shift:baseline;fill:#14c8f6;stroke-width:0.36437px;marker:none"
       id="path72287" />
    <path
       d="M 88.813957,83.85246 H 91.04438 V 78.6705 c 0,-1.17391 -0.201241,-2.90123 -0.318632,-4.07513 h 0.06708 l 0.989436,2.91799 1.928562,5.2155 h 1.425458 l 1.911792,-5.2155 1.006206,-2.91799 h 0.08385 C 98.003971,75.76927 97.8195,77.49659 97.8195,78.6705 v 5.18196 h 2.26396 V 71.42582 h -2.750293 l -2.062722,5.81922 c -0.268322,0.77143 -0.486333,1.59316 -0.754655,2.38136 h -0.08385 c -0.251552,-0.7882 -0.486333,-1.60993 -0.754655,-2.38136 l -2.113032,-5.81922 h -2.750296 z"
       style="font-weight:bold;font-size:16.7701px;line-height:125%;font-family:'Noto Sans CJK TC';-inkscape-font-specification:'Noto Sans CJK TC Bold';letter-spacing:1.32292px;word-spacing:0px;baseline-shift:baseline;fill:#14c8f6;stroke-width:0.36437px;marker:none"
       id="path72284" />
    <path
       d="m 106.62933,77.3792 c 0.36894,-1.2913 0.73788,-2.69998 1.05652,-4.05836 h 0.0838 c 0.35217,1.34161 0.68757,2.76706 1.07328,4.05836 l 0.36894,1.35838 h -2.95153 z m -4.29315,6.47326 h 2.51552 l 0.87204,-3.18632 h 4.02483 l 0.87204,3.18632 h 2.59937 L 109.2287,71.42582 h -2.918 z"
       style="font-weight:bold;font-size:16.7701px;line-height:125%;font-family:'Noto Sans CJK TC';-inkscape-font-specification:'Noto Sans CJK TC Bold';letter-spacing:1.32292px;word-spacing:0px;baseline-shift:baseline;fill:#14c8f6;stroke-width:0.36437px;marker:none"
       id="path72281" />
  </g>
</svg>
